<svg width="53" height="18" viewBox="0 0 53 18" fill="none" xmlns="http://www.w3.org/2000/svg">
<path d="M53 0C52.8339 0.0953455 52.656 0.168573 52.4709 0.217842L50.9356 0.736535L45.2611 2.57273C40.4684 4.12881 33.8499 6.34881 26.5882 8.79704C19.3265 11.2453 12.6768 13.4238 7.85298 14.8761C5.44625 15.6126 3.4856 16.1728 2.12663 16.5463L0.560165 16.9509C0.378025 17.0087 0.190256 17.047 0 17.065C0.166117 16.9697 0.343955 16.8964 0.529045 16.8471L2.06439 16.3284L7.73888 14.4923C12.5316 12.9362 19.1501 10.7162 26.4118 8.26796C33.6735 5.81973 40.3128 3.64121 45.1366 2.18887C47.5537 1.45232 49.504 0.892151 50.8733 0.518693L52.4398 0.114097C52.6219 0.0562457 52.8097 0.0180069 53 0Z" fill="#263238"/>
</svg>
