<svg width="5" height="34" viewBox="0 0 5 34" fill="none" xmlns="http://www.w3.org/2000/svg">
<path d="M4.50713 34C4.3613 33.5741 4.26081 33.1341 4.20733 32.6871C4.04193 31.8291 3.85587 30.6196 3.63879 29.0483C3.19427 25.9471 2.73943 21.6984 2.25357 16.9948C1.7677 12.2913 1.21981 8.03223 0.764964 4.962C0.527202 3.43205 0.320445 2.20189 0.17572 1.34388C0.0627762 0.904719 0.00377991 0.453433 0 0C0.177996 0.414142 0.306379 0.847884 0.382482 1.29219C0.609907 2.13986 0.868344 3.35969 1.15779 4.89998C1.74703 8.00122 2.3259 12.2189 2.81177 16.9328C3.29763 21.6467 3.71115 25.7817 4.03161 28.9967C4.18668 30.4439 4.32107 31.6741 4.42444 32.6561C4.50476 33.0993 4.5325 33.5503 4.50713 34Z" fill="#263238"/>
</svg>
