<svg width="18" height="18" viewBox="0 0 18 18" fill="none" xmlns="http://www.w3.org/2000/svg">
<path fill-rule="evenodd" clip-rule="evenodd" d="M18 8.98753C18 9.59618 17.9381 10.204 17.8163 10.7965C17.6977 11.3749 17.5219 11.9427 17.2916 12.4855C17.0666 13.0188 16.7875 13.5326 16.4614 14.0118C16.1402 14.488 15.7702 14.9348 15.3636 15.342C14.9562 15.7475 14.508 16.1165 14.032 16.4391C13.5512 16.7629 13.0366 17.0416 12.5031 17.2676C11.9595 17.4967 11.3903 17.6722 10.8124 17.7907C10.2192 17.9127 9.60914 17.975 8.9996 17.975C8.38961 17.975 7.77962 17.9127 7.18721 17.7907C6.60843 17.6722 6.03931 17.4967 5.49611 17.2676C4.9626 17.0416 4.44751 16.7629 3.96673 16.4391C3.49078 16.1165 3.04252 15.7475 2.636 15.342C2.22906 14.9348 1.859 14.488 1.5373 14.0118C1.21297 13.5326 0.933444 13.0187 0.707568 12.4855C0.477255 11.9427 0.301049 11.3748 0.181947 10.7965C0.0615415 10.204 0 9.59618 0 8.98753C0 8.37842 0.0615062 7.76931 0.181982 7.17814C0.301085 6.59974 0.47729 6.03101 0.707604 5.48906C0.933479 4.95543 1.213 4.44112 1.53734 3.96189C1.85903 3.48532 2.22909 3.03943 2.63603 2.63174C3.04255 2.22623 3.49081 1.85807 3.96677 1.53596C4.44754 1.21076 4.96263 0.932132 5.49614 0.705668C6.03934 0.476109 6.60843 0.300158 7.18725 0.182564C7.77966 0.0614527 8.38965 0 8.99964 0C9.60917 0 10.2192 0.0614527 10.8125 0.182564C11.3904 0.300193 11.9595 0.476144 12.5031 0.705668C13.0366 0.932097 13.5513 1.21076 14.0321 1.53596C14.508 1.85807 14.9563 2.22623 15.3637 2.63174C15.7702 3.03943 16.1402 3.48532 16.4615 3.96189C16.7875 4.44112 17.0666 4.95547 17.2916 5.48906C17.5219 6.03101 17.6977 6.59974 17.8163 7.17814C17.9381 7.76931 18 8.37842 18 8.98753ZM5.72019 2.04544C3.57684 3.05612 1.97715 5.02827 1.47834 7.40505C1.68097 7.40681 4.88387 7.44719 8.57414 6.4681C7.24386 4.10799 5.8226 2.18196 5.72019 2.04544ZM9.21093 7.64995C5.25347 8.83303 1.45593 8.7479 1.31971 8.74266C1.31749 8.82515 1.31355 8.905 1.31355 8.98752C1.31355 10.9592 2.05845 12.7567 3.28284 14.1158C3.2802 14.1119 5.38356 10.3857 9.53132 9.04634C9.63151 9.01299 9.73349 8.98313 9.83455 8.95418C9.64165 8.51799 9.4311 8.08089 9.21093 7.64995ZM14.0755 3.22726C12.7224 2.03578 10.9456 1.31305 8.99958 1.31305C8.37507 1.31305 7.76903 1.38854 7.18849 1.52808C7.30361 1.68257 8.74732 3.59503 10.0618 6.00512C12.9619 4.91944 14.0566 3.25533 14.0755 3.22726ZM10.3585 10.2259C10.3414 10.2316 10.3242 10.2365 10.3075 10.2426C5.77262 11.8213 4.29169 15.0027 4.27567 15.0374C5.5805 16.0507 7.21711 16.662 8.99963 16.662C10.064 16.662 11.0779 16.4456 12.0003 16.0538C11.8865 15.3832 11.44 13.0328 10.3585 10.2259ZM13.2946 15.3525C15.0204 14.1896 16.2461 12.3429 16.588 10.204C16.4298 10.1531 14.2794 9.47328 11.7986 9.87045C12.8067 12.6369 13.2163 14.89 13.2946 15.3525ZM10.6534 7.14876C10.8318 7.51477 11.0045 7.88728 11.164 8.26166C11.2207 8.39597 11.2761 8.52763 11.3302 8.65926C13.9705 8.32748 16.5718 8.88569 16.683 8.90848C16.6654 7.08907 16.0136 5.41926 14.9352 4.11197C14.9207 4.13255 13.688 5.9112 10.6534 7.14876Z" fill="white"/>
</svg>
