<svg width="86" height="113" viewBox="0 0 86 113" fill="none" xmlns="http://www.w3.org/2000/svg">
<path d="M19.0504 110.272C3.05862 99.1038 -0.564116 78.3714 0.0672755 59.7298C0.170782 56.6246 -0.170777 53.3331 1.30937 50.6109C2.78952 47.8887 6.24663 46.0152 9.03096 47.3194C11.3392 48.4062 12.3432 51.0974 13.637 53.3228C15.3634 56.2868 17.8932 58.7019 20.9342 60.2888C22.9112 61.3239 25.3643 61.9449 27.3206 60.8684C30.0118 59.3883 30.3223 55.6931 30.3016 52.5879C30.3016 46.8122 30.2671 41.0434 30.1981 35.2816C30.0121 32.1876 30.3267 29.0839 31.1297 26.0901C32.0923 23.1506 34.2349 20.4283 37.1641 19.6003C40.0933 18.7722 43.7471 20.4801 44.4096 23.5025C44.5236 24.7826 44.5547 26.0688 44.5027 27.3529C44.5855 28.6468 45.1859 30.0648 46.3969 30.4581C47.6079 30.8515 48.8707 29.9509 49.8023 29.0401C52.9903 25.9349 55.1639 21.8878 57.1823 17.8924C59.2007 13.897 61.1777 9.78782 64.0758 6.38245C66.974 2.97707 70.9797 0.275554 75.4616 0.0167873C79.9434 -0.24198 84.6116 2.5113 85.7295 6.85859C86.8474 11.2059 84.3114 15.6463 81.5892 19.1759C77.4814 24.4151 72.6391 29.0342 67.2121 32.8905C66.1528 33.469 65.3073 34.3725 64.8004 35.4679C64.1276 37.538 66.0839 39.6081 68.123 40.2602C70.4312 41.0262 72.936 40.7881 75.3684 41.0779C77.8008 41.3677 80.3885 42.4235 81.3097 44.7006C82.5725 47.868 79.9228 51.1802 77.3247 53.3538C72.108 57.7011 66.1843 61.1215 59.8114 63.4664C57.5342 64.2945 55.1432 65.0294 53.3008 66.6234C51.4584 68.2174 50.3612 71.0017 51.4687 73.1857C52.5763 75.3697 55.4227 76.0632 57.8137 75.6181C60.2047 75.1731 62.3266 73.8896 64.6037 73.0305C68.8579 71.4261 74.3437 71.7159 77.0246 75.3904C77.8551 76.6562 78.3808 78.0973 78.5604 79.6005C78.74 81.1037 78.5686 82.6281 78.0596 84.0539C77.0237 86.8914 75.4293 89.4924 73.3708 91.7031C66.5915 99.8028 57.7831 105.957 47.846 109.537C37.9818 112.953 28.8422 113.885 19.0401 110.293" fill="#4CAF4F"/>
</svg>
