<svg width="63" height="146" viewBox="0 0 63 146" fill="none" xmlns="http://www.w3.org/2000/svg">
<path d="M63 0C63 0 62.9066 0.103756 62.6991 0.29052L61.7756 1.1102C60.9663 1.8365 59.7731 2.89484 58.2687 4.29557C54.003 8.25615 50.0421 12.5327 46.4195 17.0889C44.1057 19.963 41.7089 23.221 39.1565 26.7591C36.6041 30.2972 33.9686 34.1155 31.3539 38.1724C28.5663 42.4506 26.0135 46.8772 23.707 51.4327C22.5034 53.8087 21.4451 56.2885 20.3556 58.8202L17.1391 66.5501C12.8993 76.2868 9.20672 86.2527 6.07855 96.4012C3.55881 104.705 1.82194 113.226 0.890667 121.853C0.287227 127.675 0.190023 133.539 0.600147 139.378C0.76616 141.453 0.921809 143.04 1.06707 144.119C1.12932 144.638 1.17081 145.053 1.21231 145.354V145.779C1.16766 145.645 1.13639 145.506 1.11894 145.364C1.06706 145.064 1.0048 144.659 0.921794 144.14C0.73503 143.103 0.537903 141.463 0.351139 139.388C-0.149468 133.538 -0.114732 127.655 0.454903 121.811C1.32838 113.147 3.02733 104.587 5.52864 96.2456C8.63054 86.0686 12.3131 76.0776 16.5581 66.3219L19.8576 58.6231C20.947 56.1018 22.0157 53.6012 23.2297 51.2148C25.5523 46.6455 28.126 42.2083 30.9389 37.9234C33.5951 33.7731 36.272 30.0171 38.7933 26.5101C41.3146 23.0031 43.7529 19.7243 46.0564 16.8606C49.7158 12.3165 53.73 8.06984 58.0611 4.16068C59.5967 2.7807 60.8211 1.74312 61.6511 1.04795L62.6161 0.269764C62.7343 0.166775 62.863 0.0763715 63 0Z" fill="#263238"/>
</svg>
