<svg width="40" height="8" viewBox="0 0 40 8" fill="none" xmlns="http://www.w3.org/2000/svg">
<path d="M40 0.0706636C39.4922 0.181189 38.9753 0.244052 38.4559 0.258449C37.4126 0.352346 35.9311 0.477545 34.0949 0.686205C30.4225 1.08266 25.3729 1.81295 19.833 2.85625C14.2931 3.89954 9.31664 5.07847 5.73813 5.98614C3.95409 6.44519 2.51434 6.86252 1.56494 7.14421C1.05803 7.32433 0.533449 7.45021 0 7.51978C0.482131 7.27734 0.98487 7.07835 1.50232 6.92513C2.48302 6.58084 3.9019 6.10089 5.6755 5.58968C9.23314 4.54638 14.2097 3.30487 19.7704 2.24071C24.4809 1.33998 29.234 0.678389 34.0114 0.258449C35.8581 0.101955 37.35 0.0393456 38.3933 0.0184796C38.9292 -0.017965 39.4675 -0.000469934 40 0.0706636Z" fill="#263238"/>
</svg>
