<svg width="20" height="51" viewBox="0 0 20 51" fill="none" xmlns="http://www.w3.org/2000/svg">
<path d="M20 50.7494C19.8898 50.5998 19.7995 50.4365 19.7313 50.2636L19.0491 48.8269C18.46 47.5763 17.6641 45.7262 16.7132 43.4626C14.7907 38.9148 12.3411 32.5478 9.73643 25.4781C7.13177 18.4083 4.73383 12.0414 2.91471 7.44188C2.02582 5.20932 1.29199 3.37986 0.744188 2.01552L0.165347 0.537488C0.0851203 0.36704 0.0294701 0.186066 0 0C0.110197 0.149634 0.200507 0.312926 0.268713 0.48579L0.950888 1.9225C1.5297 3.17315 2.33591 5.02328 3.28682 7.28685C5.2093 11.8347 7.65891 18.2016 10.2636 25.2714C12.8682 32.3411 15.2662 38.708 17.0853 43.3075C17.9742 45.5401 18.708 47.3695 19.2455 48.7339C19.4832 49.323 19.6796 49.7675 19.8346 50.212C19.9149 50.3824 19.9705 50.5633 20 50.7494Z" fill="#263238"/>
</svg>
